<svg width="20" height="20" viewBox="0 0 20 20" fill="none" xmlns="http://www.w3.org/2000/svg">
<path d="M7.5 0.25C9.38016 0.25 10.9822 0.90444 12.29 2.21094L12.5273 2.45996C13.6768 3.71933 14.2519 5.23681 14.25 7L14.2441 7.2832C14.2214 7.84609 14.1305 8.38635 13.9707 8.90332L13.8857 9.15918C13.6708 9.75781 13.3854 10.2975 13.0312 10.7773L19.3535 17.0996L17.5996 18.8535L11.2773 12.5312C10.8652 12.8354 10.4092 13.0887 9.90918 13.29L9.65918 13.3857C8.98056 13.6293 8.26018 13.75 7.5 13.75C5.73633 13.75 4.2188 13.1747 2.95996 12.0264L2.71094 11.7891C1.40504 10.4825 0.75069 8.88073 0.75 7L0.757812 6.65039C0.83402 4.92004 1.48544 3.4358 2.71094 2.21094L2.95996 1.97363C4.21987 0.825266 5.73743 0.25 7.5 0.25ZM7.2793 2.75488C6.18991 2.80218 5.26428 3.21233 4.49023 3.98926C3.66402 4.81863 3.25199 5.81754 3.25 7L3.25488 7.21973C3.30156 8.30648 3.71204 9.23255 4.49023 10.0107L4.64746 10.1621C5.44527 10.891 6.39186 11.2523 7.49902 11.25H7.5L7.71973 11.2451C8.80857 11.1969 9.7355 10.7864 10.5117 10.0107C11.3393 9.18364 11.7506 8.18488 11.75 7C11.7493 5.81477 11.3372 4.81673 10.5107 3.99023C9.68427 3.16377 8.68592 2.75132 7.5 2.75L7.2793 2.75488Z" fill="#353334" stroke="#353334" stroke-width="0.5"/>
</svg>
